<?xml version="1.0" encoding="utf-8"?>
<!-- Generator: Adobe Illustrator 16.0.0, SVG Export Plug-In . SVG Version: 6.00 Build 0)  -->
<!DOCTYPE svg PUBLIC "-//W3C//DTD SVG 1.1//EN" "http://www.w3.org/Graphics/SVG/1.1/DTD/svg11.dtd">
<svg version="1.1" id="Ebene_1" xmlns="http://www.w3.org/2000/svg" xmlns:xlink="http://www.w3.org/1999/xlink" x="0px" y="0px"
	 width="300px" height="400px" viewBox="0 0 595.28 841.89" enable-background="new 0 0 595.28 841.89" xml:space="preserve">
<g>
	<g>
		<path fill-rule="evenodd" clip-rule="evenodd" fill="#F9E3D4" d="M275.127,419.32c-0.015-10.316,3.176-19.579,9.398-27.695
			c7.375-9.619,17.144-15.528,29.086-17.839c4.313-0.835,8.675-0.993,12.985-0.618c8.614,0.75,16.532,3.659,23.57,8.757
			c5.456,3.953,9.898,8.837,13.285,14.683c2.853,4.924,4.688,10.208,5.552,15.807c0.539,3.499,0.663,7.018,0.383,10.589
			c-0.512,6.512-2.3,12.594-5.386,18.31c-2.676,4.958-6.156,9.264-10.43,12.974c-4.739,4.115-10.061,7.162-15.979,9.157
			c-3.775,1.273-7.667,1.995-11.664,2.326c-7.542,0.624-14.756-0.616-21.729-3.405c-4.432-1.772-8.487-4.199-12.153-7.286
			c-5.392-4.539-9.705-9.893-12.657-16.315c-2.044-4.447-3.464-9.07-3.907-13.961C275.317,422.979,275.243,421.148,275.127,419.32z
			 M296.521,431.411c2.919,0,5.794,0.014,8.669-0.024c0.241-0.003,0.478-0.351,0.716-0.538c-0.214-0.22-0.391-0.561-0.648-0.64
			c-2.14-0.653-2.181-0.675-2.19-2.881c-0.013-2.84,0.028-5.681-0.026-8.52c-0.062-3.242-1.562-5.549-4.033-6.313
			c-2.32-0.717-4.415-0.116-6.369,1.173c-0.646,0.426-1.27,0.888-2.084,1.461c0-4.857,0-9.475,0-14.104
			c-1.934,0.404-3.768,0.759-5.583,1.19c-0.385,0.092-0.703,0.467-1.051,0.712c0.34,0.218,0.655,0.541,1.027,0.632
			c0.981,0.242,1.854,0.462,1.85,1.77c-0.021,7.6-0.012,15.199-0.013,22.798c0,1.068-0.457,1.742-1.575,1.898
			c-0.423,0.059-0.835,0.203-1.303,0.321c0.017,0.352,0.032,0.651,0.048,0.992c3.171,0,6.27,0,9.368,0
			c0.083-0.098,0.165-0.195,0.247-0.293c-0.267-0.287-0.495-0.768-0.806-0.828c-1.611-0.317-2.09-0.621-2.139-2.756
			c-0.075-3.278-0.049-6.56,0.008-9.838c0.008-0.477,0.318-1.084,0.688-1.389c0.603-0.497,1.333-0.899,2.073-1.156
			c2.975-1.029,5.345,0.302,5.617,3.411c0.274,3.134,0.181,6.303,0.19,9.457c0.004,1.291-0.68,2.107-2.027,2.206
			C296.4,430.21,296.215,430.58,296.521,431.411z M363.081,421.864c0.018-5.466-4.048-9.617-9.453-9.651
			c-5.666-0.036-10.175,4.392-10.203,10.02c-0.028,5.489,4.161,9.644,9.738,9.658C358.89,431.907,363.062,427.689,363.081,421.864z
			 M323.729,426.626c-2.432,1.972-4.964,2.928-7.834,1.413c-2.811-1.483-3.485-4.139-3.688-7.213c0.578,0,1.049,0.028,1.515-0.004
			c3.144-0.217,6.288-0.417,9.427-0.686c1.283-0.11,1.632-0.642,1.495-1.914c-0.44-4.103-4.597-6.915-8.57-5.798
			c-4.521,1.27-7.832,5.714-7.649,10.429c0.131,3.377,1.339,6.282,4.426,8.007c3.941,2.203,8.641,0.814,11.545-3.325
			C324.202,427.271,323.996,426.991,323.729,426.626z M333.801,412.127c-2.013,0.519-3.899,0.988-5.772,1.508
			c-0.267,0.074-0.464,0.396-0.693,0.604c0.231,0.202,0.433,0.518,0.699,0.588c1.683,0.447,1.93,0.713,1.937,2.479
			c0.013,3.357,0.012,6.714,0.001,10.072c-0.008,2.046-0.202,2.348-2.177,2.771c-0.826,0.177-0.822,0.543-0.623,1.175
			c3.408,0,6.781,0,10.125,0c0.234-0.775,0.05-1.059-0.738-1.148c-2.421-0.276-2.749-0.693-2.755-3.121
			c-0.006-2.158,0.058-4.318-0.023-6.474c-0.057-1.522,0.54-2.714,1.514-3.772c1.177-1.278,2.116-1.323,3.589-0.413
			c0.407,0.252,1.262,0.422,1.489,0.199c0.58-0.569,1.108-1.332,1.313-2.108c0.237-0.903-0.422-1.559-1.238-1.967
			c-1.465-0.734-3.279-0.159-4.628,1.5c-0.636,0.781-1.229,1.595-2.018,2.622c0-1.012,0-1.72,0-2.428
			C333.801,413.511,333.801,412.808,333.801,412.127z"/>
		<path fill-rule="evenodd" clip-rule="evenodd" fill="#000000" fill-opacity="0.8" d="M208.762,421.709c0.003,5.876-4.132,10.176-9.793,10.183
			c-5.614,0.007-9.87-4.125-9.849-9.561c0.022-5.635,4.443-10.106,10.001-10.116C204.559,412.206,208.759,416.342,208.762,421.709z
			 M204.48,422.899c-0.164-2.97-0.734-5.32-1.891-7.02c-2.208-3.247-6.24-2.992-7.983,0.517c-0.994,2-1.118,4.146-0.879,6.314
			c0.247,2.248,0.789,4.414,2.399,6.129c2.427,2.583,6.221,1.905,7.415-1.41C204.058,425.993,204.179,424.414,204.48,422.899z"/>
		<path fill-rule="evenodd" clip-rule="evenodd" fill="#000000" fill-opacity="0.8" d="M259.638,428.56c0.141,0.378,0.263,0.703,0.413,1.106
			c-1.167,0.677-2.282,1.372-3.441,1.983c-1.071,0.565-1.939-0.03-2.684-0.712c-0.425-0.391-0.688-0.959-1.095-1.55
			c-0.949,0.584-1.923,1.169-2.884,1.776c-1.836,1.161-3.609,0.861-5.243-0.35c-1.723-1.277-2.393-3.073-2.009-5.18
			c0.306-1.681,1.56-2.528,3.051-3.082c1.756-0.653,3.539-1.238,5.272-1.947c1.897-0.775,1.98-0.914,1.645-2.946
			c-0.131-0.799-0.429-1.651-0.899-2.299c-1.301-1.794-3.838-1.523-4.812,0.459c-0.297,0.605-0.379,1.328-0.734,1.886
			c-0.307,0.481-0.968,1.204-1.283,1.119c-0.724-0.195-1.488-0.706-1.922-1.313c-0.217-0.303,0.078-1.404,0.448-1.622
			c2.117-1.244,4.297-2.393,6.522-3.432c0.626-0.292,1.502-0.248,2.219-0.114c2.662,0.497,4.205,2.501,4.298,5.548
			c0.062,2.037,0.019,4.076,0.022,6.115c0.001,0.839-0.019,1.679,0.008,2.518C256.601,428.738,257.384,429.283,259.638,428.56z
			 M252.818,421.129c-1.757,0.875-3.316,1.571-4.792,2.414c-1.162,0.663-1.532,1.81-1.293,3.105
			c0.237,1.287,0.991,2.162,2.279,2.507c1.43,0.382,3.762-0.741,3.791-1.867C252.854,425.338,252.818,423.386,252.818,421.129z"/>
		<path fill-rule="evenodd" clip-rule="evenodd" fill="#000000" fill-opacity="0.8" d="M261.183,402.508c2.222-0.5,4.359-0.982,6.62-1.491
			c0,0.42,0,0.844,0,1.268c0,7.796,0,15.593,0,23.39c0,0.36-0.001,0.72,0.001,1.08c0.019,2.843,0.265,3.128,3.137,3.533
			c0.032,0.305,0.066,0.636,0.11,1.051c-3.352,0-6.614,0-9.997,0c-0.029-0.276-0.063-0.606-0.098-0.94
			c0.169-0.082,0.265-0.157,0.371-0.176c2.499-0.437,2.701-0.612,2.712-3.175c0.029-6.837,0.028-13.674,0.003-20.511
			c-0.01-2.558-0.198-2.714-2.86-3.046C261.183,403.141,261.183,402.779,261.183,402.508z"/>
		<path fill-rule="evenodd" clip-rule="evenodd" fill="#000000" fill-opacity="0.8" d="M173.227,425.255c0.528-0.066,0.876-0.11,1.14-0.143
			c0.631,1.142,1.142,2.271,1.837,3.271c0.85,1.22,2.021,2.046,3.598,2.08c1.306,0.028,2.38-0.651,2.856-1.787
			c0.471-1.124,0.257-2.48-0.727-3.286c-0.792-0.647-1.748-1.096-2.639-1.62c-1.132-0.667-2.375-1.192-3.387-2.007
			c-2.793-2.248-2.582-6.291,0.411-8.278c2.451-1.628,5.128-1.582,7.827-0.708c0.304,0.098,0.629,0.508,0.714,0.834
			c0.332,1.266,0.572,2.557,0.863,3.92c-0.469,0.142-0.828,0.25-1.142,0.345c-0.493-0.878-0.886-1.71-1.399-2.46
			c-0.679-0.992-1.619-1.655-2.861-1.769c-1.282-0.118-2.261,0.413-2.76,1.47c-0.522,1.105-0.393,2.403,0.536,3.196
			c0.744,0.636,1.656,1.088,2.525,1.562c1.153,0.629,2.422,1.079,3.494,1.819c3.239,2.238,3.156,6.729-0.182,8.839
			c-2.986,1.887-6.146,1.736-9.279,0.33c-0.355-0.159-0.688-0.685-0.765-1.091C173.612,428.327,173.451,426.86,173.227,425.255z"/>
		<path fill-rule="evenodd" clip-rule="evenodd" fill="#000000" fill-opacity="0.8" d="M227.759,426.564c0.735,0.486,0.858,0.935,0.209,1.617
			c-2.631,2.77-5.598,4.505-9.59,3.36c-4.436-1.271-7.02-5.773-6.057-10.558c1.116-5.545,7.641-9.854,12.961-8.534
			c0.607,0.151,1.218,0.409,1.742,0.749c1.094,0.709,1.22,1.754,0.415,2.758c-0.566,0.706-1.104,0.838-1.917,0.214
			c-0.869-0.667-1.855-1.28-2.888-1.614c-2.496-0.807-4.892,0.315-5.92,2.731c-1.101,2.588-1.088,5.233,0.162,7.77
			c1.859,3.773,6.324,4.83,9.744,2.373C227.005,427.153,227.377,426.855,227.759,426.564z"/>
		<path fill-rule="evenodd" clip-rule="evenodd" fill="#000000" fill-opacity="0.8" d="M230.299,431.364c0-0.381,0-0.688,0-1.061
			c0.25-0.042,0.475-0.081,0.7-0.117c1.855-0.304,2.243-0.711,2.257-2.586c0.025-3.358,0.021-6.717,0.004-10.076
			c-0.01-1.851-0.207-2.062-2.028-2.507c-0.192-0.046-0.376-0.122-0.905-0.297c0.38-0.422,0.603-0.908,0.931-0.994
			c1.886-0.494,3.796-0.894,5.824-1.354c0,0.359,0,0.774,0,1.19c0,4.359-0.005,8.717,0.002,13.077
			c0.005,2.977,0.12,3.106,3.08,3.675c0,0.326,0,0.664,0,1.051C236.896,431.364,233.665,431.364,230.299,431.364z"/>
		<path fill-rule="evenodd" clip-rule="evenodd" fill="#000000" fill-opacity="0.8" d="M234.983,403.853c1.272-0.034,2.322,1.029,2.337,2.367
			c0.015,1.323-1.011,2.385-2.309,2.391c-1.223,0.006-2.31-1.018-2.375-2.235C232.566,405.055,233.652,403.888,234.983,403.853z"/>
		<path fill-rule="evenodd" clip-rule="evenodd" fill="#FE876B" d="M296.521,431.411c-0.306-0.831-0.121-1.2,0.652-1.258
			c1.348-0.099,2.031-0.915,2.027-2.206c-0.01-3.153,0.084-6.322-0.19-9.457c-0.272-3.109-2.643-4.44-5.617-3.411
			c-0.741,0.256-1.471,0.659-2.073,1.156c-0.37,0.305-0.679,0.912-0.688,1.389c-0.058,3.279-0.083,6.56-0.008,9.838
			c0.049,2.135,0.528,2.438,2.139,2.756c0.311,0.061,0.54,0.541,0.806,0.828c-0.082,0.098-0.164,0.195-0.247,0.293
			c-3.098,0-6.197,0-9.368,0c-0.017-0.341-0.031-0.641-0.048-0.992c0.468-0.118,0.879-0.263,1.303-0.321
			c1.118-0.156,1.575-0.83,1.575-1.898c0.001-7.6-0.008-15.199,0.013-22.798c0.004-1.308-0.869-1.527-1.85-1.77
			c-0.372-0.091-0.687-0.415-1.027-0.632c0.349-0.245,0.667-0.62,1.051-0.712c1.815-0.432,3.649-0.786,5.583-1.19
			c0,4.629,0,9.248,0,14.104c0.815-0.573,1.438-1.035,2.084-1.461c1.955-1.289,4.049-1.89,6.369-1.173
			c2.472,0.765,3.972,3.072,4.033,6.313c0.055,2.839,0.014,5.68,0.026,8.52c0.01,2.206,0.051,2.228,2.19,2.881
			c0.258,0.079,0.435,0.42,0.648,0.64c-0.238,0.188-0.475,0.535-0.716,0.538C302.315,431.424,299.44,431.411,296.521,431.411z"/>
		<path fill-rule="evenodd" clip-rule="evenodd" fill="#FE866B" d="M363.081,421.864c-0.02,5.825-4.191,10.043-9.918,10.027
			c-5.577-0.015-9.767-4.169-9.738-9.658c0.028-5.628,4.537-10.056,10.203-10.02C359.033,412.247,363.099,416.398,363.081,421.864z
			 M358.688,422.673c-0.071-2.501-0.436-4.891-1.908-6.971c-2.113-2.986-6.144-2.769-7.703,0.518
			c-1.904,4.012-1.479,8.029,0.741,11.794c0.956,1.619,2.52,2.582,4.535,2.342c2.228-0.266,3.328-1.787,3.807-3.783
			C358.463,425.304,358.52,423.975,358.688,422.673z"/>
		<path fill-rule="evenodd" clip-rule="evenodd" fill="#FE876B" d="M323.729,426.626c0.268,0.364,0.474,0.645,0.666,0.908
			c-2.904,4.14-7.604,5.528-11.545,3.325c-3.087-1.725-4.295-4.63-4.426-8.007c-0.183-4.715,3.128-9.159,7.649-10.429
			c3.974-1.117,8.13,1.695,8.57,5.798c0.137,1.272-0.212,1.803-1.495,1.914c-3.139,0.27-6.283,0.469-9.427,0.686
			c-0.466,0.032-0.937,0.004-1.515,0.004c0.202,3.075,0.877,5.73,3.688,7.213C318.765,429.554,321.297,428.598,323.729,426.626z
			 M312.479,418.912c2.467,0,4.813,0.034,7.157-0.039c0.326-0.01,0.835-0.5,0.918-0.85c0.274-1.147-0.8-3.048-1.961-3.71
			c-1.294-0.737-2.866-0.588-4.003,0.399C313.358,415.78,312.78,417.187,312.479,418.912z"/>
		<path fill-rule="evenodd" clip-rule="evenodd" fill="#FE866A" d="M333.801,412.127c0,0.681,0,1.384,0,2.087
			c0,0.708,0,1.416,0,2.428c0.788-1.027,1.382-1.841,2.018-2.622c1.349-1.659,3.163-2.234,4.628-1.5
			c0.816,0.409,1.476,1.064,1.238,1.967c-0.204,0.776-0.732,1.539-1.313,2.108c-0.228,0.223-1.082,0.053-1.489-0.199
			c-1.473-0.911-2.412-0.866-3.589,0.413c-0.974,1.058-1.57,2.25-1.514,3.772c0.081,2.155,0.018,4.315,0.023,6.474
			c0.006,2.428,0.334,2.845,2.755,3.121c0.788,0.09,0.973,0.373,0.738,1.148c-3.344,0-6.717,0-10.125,0
			c-0.199-0.632-0.203-0.998,0.623-1.175c1.975-0.424,2.169-0.726,2.177-2.771c0.011-3.357,0.012-6.714-0.001-10.072
			c-0.007-1.766-0.254-2.032-1.937-2.479c-0.267-0.071-0.468-0.386-0.699-0.588c0.229-0.208,0.427-0.53,0.693-0.604
			C329.901,413.115,331.788,412.646,333.801,412.127z"/>
		<path fill-rule="evenodd" clip-rule="evenodd" fill="#F9E2D3" d="M358.688,422.673c-0.168,1.302-0.225,2.631-0.528,3.899
			c-0.479,1.996-1.579,3.518-3.807,3.783c-2.016,0.24-3.579-0.723-4.535-2.342c-2.221-3.765-2.646-7.782-0.741-11.794
			c1.56-3.287,5.59-3.504,7.703-0.518C358.252,417.782,358.616,420.172,358.688,422.673z"/>
		<path fill-rule="evenodd" clip-rule="evenodd" fill="#F9E2D3" d="M312.479,418.912c0.302-1.726,0.88-3.132,2.111-4.201
			c1.137-0.987,2.709-1.136,4.003-0.399c1.161,0.663,2.235,2.563,1.961,3.71c-0.083,0.35-0.592,0.84-0.918,0.85
			C317.292,418.946,314.945,418.912,312.479,418.912z"/>
	</g>
</g>
</svg>
