<?xml version="1.0" encoding="utf-8"?>
<!-- Generator: Adobe Illustrator 16.0.0, SVG Export Plug-In . SVG Version: 6.00 Build 0)  -->
<!DOCTYPE svg PUBLIC "-//W3C//DTD SVG 1.1//EN" "http://www.w3.org/Graphics/SVG/1.1/DTD/svg11.dtd">
<svg version="1.1" xmlns="http://www.w3.org/2000/svg" xmlns:xlink="http://www.w3.org/1999/xlink" x="0px" y="0px"
	 width="93.269px" height="43.673px" viewBox="90.888 177.209 93.269 43.673" enable-background="new 90.888 177.209 93.269 43.673"
	 xml:space="preserve">
<g id="Ebene_1">
	<g>
		<g>
			<path fill="#F9E3D4" d="M139.303,199.228c-0.007-4.901,1.509-9.302,4.466-13.159c3.504-4.57,8.145-7.377,13.819-8.476
				c2.049-0.396,4.121-0.472,6.169-0.293c4.093,0.356,7.854,1.738,11.198,4.161c2.593,1.878,4.703,4.198,6.313,6.976
				c1.355,2.339,2.228,4.85,2.638,7.51c0.256,1.663,0.315,3.334,0.182,5.031c-0.243,3.094-1.093,5.983-2.559,8.699
				c-1.271,2.355-2.925,4.401-4.955,6.164c-2.252,1.955-4.78,3.402-7.593,4.351c-1.793,0.604-3.643,0.948-5.541,1.105
				c-3.584,0.296-7.012-0.293-10.324-1.618c-2.105-0.842-4.032-1.994-5.774-3.461c-2.562-2.157-4.611-4.701-6.014-7.752
				c-0.971-2.113-1.646-4.31-1.856-6.633C139.394,200.967,139.359,200.097,139.303,199.228z M149.469,204.973
				c1.387,0,2.753,0.007,4.119-0.012c0.114-0.001,0.227-0.166,0.34-0.256c-0.102-0.104-0.186-0.266-0.308-0.304
				c-1.018-0.31-1.037-0.32-1.041-1.368c-0.006-1.35,0.014-2.7-0.013-4.048c-0.029-1.541-0.741-2.637-1.916-3
				c-1.102-0.341-2.098-0.055-3.025,0.557c-0.308,0.203-0.604,0.422-0.99,0.694c0-2.308,0-4.502,0-6.701
				c-0.919,0.192-1.791,0.361-2.653,0.565c-0.183,0.043-0.334,0.222-0.499,0.338c0.162,0.104,0.312,0.257,0.488,0.3
				c0.466,0.115,0.881,0.219,0.879,0.841c-0.01,3.611-0.006,7.221-0.006,10.832c0,0.508-0.218,0.828-0.749,0.902
				c-0.201,0.027-0.396,0.096-0.619,0.152c0.009,0.167,0.016,0.309,0.023,0.471c1.506,0,2.979,0,4.45,0
				c0.04-0.046,0.079-0.092,0.118-0.139c-0.127-0.137-0.235-0.365-0.384-0.394c-0.765-0.15-0.992-0.295-1.016-1.31
				c-0.036-1.557-0.023-3.117,0.004-4.674c0.004-0.227,0.15-0.515,0.326-0.66c0.287-0.236,0.634-0.427,0.985-0.549
				c1.413-0.489,2.539,0.144,2.669,1.621c0.13,1.489,0.086,2.995,0.09,4.493c0.002,0.613-0.323,1.001-0.963,1.049
				C149.411,204.402,149.323,204.578,149.469,204.973z M181.093,200.437c0.009-2.597-1.924-4.569-4.491-4.585
				c-2.692-0.017-4.835,2.087-4.848,4.76c-0.014,2.608,1.977,4.582,4.627,4.59C179.101,205.208,181.084,203.204,181.093,200.437z
				 M162.395,202.699c-1.155,0.938-2.358,1.391-3.722,0.672c-1.336-0.705-1.656-1.967-1.753-3.428c0.275,0,0.499,0.014,0.721-0.002
				c1.493-0.103,2.987-0.198,4.479-0.326c0.609-0.052,0.775-0.305,0.71-0.91c-0.209-1.949-2.184-3.285-4.071-2.754
				c-2.148,0.603-3.722,2.715-3.635,4.955c0.063,1.604,0.637,2.984,2.104,3.805c1.872,1.047,4.105,0.387,5.485-1.58
				C162.62,203.006,162.522,202.873,162.395,202.699z M167.18,195.811c-0.956,0.247-1.852,0.469-2.742,0.716
				c-0.127,0.035-0.221,0.188-0.329,0.287c0.109,0.096,0.206,0.246,0.332,0.279c0.8,0.212,0.917,0.339,0.921,1.178
				c0.006,1.595,0.005,3.19,0,4.786c-0.004,0.972-0.096,1.115-1.034,1.316c-0.393,0.084-0.391,0.258-0.296,0.559
				c1.619,0,3.222,0,4.811,0c0.111-0.369,0.023-0.504-0.351-0.546c-1.15-0.131-1.307-0.329-1.31-1.483
				c-0.003-1.024,0.028-2.051-0.011-3.075c-0.027-0.723,0.257-1.29,0.72-1.792c0.559-0.607,1.005-0.629,1.705-0.196
				c0.193,0.12,0.6,0.2,0.707,0.094c0.276-0.27,0.526-0.633,0.624-1.001c0.113-0.429-0.2-0.741-0.588-0.935
				c-0.696-0.349-1.558-0.076-2.199,0.713c-0.302,0.371-0.584,0.758-0.959,1.246c0-0.481,0-0.817,0-1.154
				C167.18,196.468,167.18,196.134,167.18,195.811z"/>
			<path fill="#FFFFFF" fill-opacity="0.8" d="M107.772,200.363c0.001,2.792-1.963,4.834-4.653,4.838c-2.667,0.004-4.689-1.96-4.679-4.543
				c0.01-2.677,2.11-4.801,4.751-4.806C105.775,195.848,107.77,197.813,107.772,200.363z M105.738,200.928
				c-0.078-1.411-0.349-2.527-0.898-3.335c-1.05-1.542-2.965-1.421-3.793,0.246c-0.473,0.95-0.531,1.97-0.418,2.999
				c0.117,1.068,0.375,2.098,1.14,2.912c1.153,1.229,2.956,0.906,3.523-0.67C105.537,202.398,105.594,201.648,105.738,200.928z"/>
			<path fill="#FFFFFF" fill-opacity="0.8" d="M131.944,203.618c0.067,0.18,0.125,0.334,0.196,0.525c-0.554,0.321-1.084,0.651-1.635,0.942
				c-0.509,0.268-0.921-0.015-1.275-0.338c-0.201-0.187-0.326-0.456-0.52-0.737c-0.451,0.278-0.914,0.556-1.371,0.845
				c-0.872,0.551-1.714,0.408-2.49-0.167c-0.819-0.606-1.138-1.46-0.955-2.461c0.146-0.799,0.741-1.201,1.45-1.464
				c0.834-0.311,1.681-0.589,2.505-0.926c0.9-0.368,0.94-0.434,0.781-1.399c-0.063-0.38-0.204-0.785-0.428-1.093
				c-0.618-0.852-1.823-0.724-2.286,0.218c-0.141,0.288-0.18,0.631-0.349,0.896c-0.146,0.229-0.46,0.572-0.609,0.532
				c-0.344-0.093-0.707-0.335-0.913-0.624c-0.104-0.144,0.037-0.667,0.213-0.771c1.006-0.591,2.041-1.137,3.099-1.63
				c0.298-0.139,0.714-0.118,1.055-0.054c1.265,0.236,1.997,1.188,2.042,2.636c0.029,0.968,0.009,1.937,0.01,2.906
				c0.001,0.398-0.009,0.798,0.004,1.196C130.502,203.703,130.874,203.961,131.944,203.618z M128.704,200.087
				c-0.835,0.416-1.575,0.747-2.276,1.147c-0.553,0.314-0.729,0.859-0.614,1.475c0.112,0.612,0.471,1.027,1.083,1.191
				c0.679,0.182,1.787-0.352,1.801-0.887C128.721,202.088,128.704,201.16,128.704,200.087z"/>
			<path fill="#FFFFFF" fill-opacity="0.8" d="M132.678,191.24c1.056-0.238,2.071-0.467,3.146-0.708c0,0.2,0,0.401,0,0.603
				c0,3.704,0,7.409,0,11.113c0,0.171-0.001,0.343,0,0.513c0.01,1.352,0.126,1.486,1.491,1.68c0.015,0.145,0.031,0.302,0.052,0.499
				c-1.593,0-3.143,0-4.75,0c-0.014-0.132-0.029-0.288-0.046-0.446c0.08-0.039,0.126-0.075,0.176-0.084
				c1.188-0.207,1.283-0.291,1.289-1.509c0.014-3.248,0.013-6.497,0.001-9.745c-0.005-1.215-0.094-1.289-1.358-1.447
				C132.678,191.541,132.678,191.369,132.678,191.24z"/>
			<path fill="#FFFFFF" fill-opacity="0.8" d="M90.888,202.048c0.251-0.031,0.416-0.052,0.542-0.067c0.3,0.542,0.543,1.078,0.873,1.554
				c0.403,0.579,0.96,0.972,1.709,0.988c0.621,0.013,1.131-0.31,1.357-0.849c0.224-0.535,0.122-1.179-0.346-1.563
				c-0.376-0.307-0.83-0.52-1.254-0.77c-0.538-0.316-1.128-0.566-1.609-0.953c-1.327-1.068-1.227-2.989,0.195-3.933
				c1.165-0.773,2.437-0.751,3.719-0.336c0.145,0.047,0.299,0.241,0.34,0.396c0.157,0.602,0.271,1.215,0.409,1.862
				c-0.223,0.067-0.393,0.119-0.542,0.164c-0.234-0.417-0.421-0.813-0.665-1.169c-0.322-0.471-0.769-0.786-1.359-0.84
				c-0.608-0.056-1.074,0.196-1.312,0.698c-0.248,0.525-0.187,1.142,0.255,1.519c0.354,0.302,0.787,0.517,1.2,0.742
				c0.548,0.299,1.15,0.513,1.66,0.864c1.538,1.063,1.499,3.197-0.087,4.2c-1.419,0.896-2.92,0.825-4.408,0.157
				c-0.169-0.076-0.327-0.326-0.364-0.52C91.072,203.508,90.995,202.811,90.888,202.048z"/>
			<path fill="#FFFFFF" fill-opacity="0.8" d="M116.798,202.67c0.35,0.23,0.408,0.443,0.1,0.768c-1.25,1.316-2.659,2.141-4.557,1.597
				c-2.107-0.604-3.335-2.743-2.878-5.016c0.53-2.635,3.631-4.682,6.158-4.055c0.289,0.072,0.579,0.194,0.828,0.356
				c0.52,0.337,0.579,0.833,0.197,1.31c-0.27,0.335-0.524,0.398-0.911,0.102c-0.413-0.317-0.881-0.608-1.372-0.767
				c-1.186-0.383-2.324,0.15-2.813,1.297c-0.523,1.23-0.518,2.486,0.077,3.691c0.883,1.793,3.004,2.295,4.629,1.128
				C116.44,202.949,116.617,202.809,116.798,202.67z"/>
			<path fill="#FFFFFF" fill-opacity="0.8" d="M118.005,204.95c0-0.181,0-0.327,0-0.504c0.119-0.021,0.226-0.038,0.333-0.056
				c0.881-0.145,1.065-0.338,1.072-1.229c0.012-1.596,0.01-3.191,0.002-4.788c-0.005-0.879-0.099-0.979-0.964-1.191
				c-0.091-0.022-0.179-0.058-0.43-0.141c0.181-0.201,0.286-0.432,0.442-0.472c0.896-0.235,1.804-0.425,2.767-0.644
				c0,0.17,0,0.368,0,0.565c0,2.071-0.002,4.142,0.001,6.213c0.003,1.414,0.058,1.477,1.464,1.746c0,0.155,0,0.316,0,0.5
				C121.139,204.95,119.604,204.95,118.005,204.95z"/>
			<path fill="#FFFFFF" fill-opacity="0.8" d="M120.23,191.879c0.604-0.016,1.104,0.489,1.11,1.125c0.007,0.628-0.48,1.133-1.097,1.136
				c-0.581,0.003-1.098-0.483-1.129-1.062C119.082,192.45,119.598,191.896,120.23,191.879z"/>
			<path fill="#FE876B" d="M149.469,204.973c-0.146-0.395-0.058-0.57,0.31-0.598c0.641-0.047,0.965-0.435,0.963-1.049
				c-0.005-1.498,0.04-3.003-0.09-4.493c-0.13-1.477-1.256-2.109-2.669-1.621c-0.353,0.122-0.699,0.313-0.985,0.549
				c-0.176,0.145-0.322,0.433-0.326,0.66c-0.028,1.558-0.04,3.117-0.004,4.674c0.023,1.016,0.251,1.159,1.016,1.311
				c0.148,0.028,0.257,0.257,0.384,0.393c-0.039,0.047-0.078,0.093-0.118,0.14c-1.472,0-2.944,0-4.45,0
				c-0.009-0.162-0.015-0.305-0.023-0.472c0.223-0.056,0.418-0.125,0.619-0.152c0.531-0.074,0.749-0.395,0.749-0.902
				c0-3.61-0.004-7.221,0.006-10.831c0.002-0.622-0.413-0.726-0.879-0.841c-0.177-0.043-0.326-0.197-0.488-0.3
				c0.166-0.117,0.317-0.295,0.499-0.338c0.863-0.205,1.734-0.374,2.653-0.565c0,2.199,0,4.394,0,6.701
				c0.387-0.272,0.683-0.492,0.99-0.694c0.929-0.612,1.924-0.898,3.025-0.557c1.175,0.363,1.888,1.459,1.916,3
				c0.026,1.349,0.007,2.698,0.013,4.048c0.005,1.048,0.024,1.059,1.041,1.369c0.122,0.037,0.206,0.199,0.308,0.304
				c-0.113,0.089-0.226,0.255-0.34,0.256C152.221,204.979,150.855,204.973,149.469,204.973z"/>
			<path fill="#FE866B" d="M181.093,200.437c-0.01,2.768-1.991,4.771-4.712,4.765c-2.65-0.008-4.641-1.981-4.627-4.59
				c0.013-2.673,2.155-4.777,4.848-4.76C179.169,195.867,181.101,197.84,181.093,200.437z M179.006,200.82
				c-0.034-1.188-0.208-2.323-0.907-3.312c-1.004-1.418-2.919-1.315-3.659,0.246c-0.905,1.906-0.703,3.815,0.352,5.604
				c0.454,0.77,1.197,1.228,2.155,1.112c1.058-0.126,1.581-0.849,1.809-1.797C178.898,202.071,178.926,201.439,179.006,200.82z"/>
			<path fill="#FE876B" d="M162.395,202.699c0.128,0.173,0.226,0.307,0.316,0.432c-1.38,1.967-3.612,2.626-5.485,1.58
				c-1.467-0.82-2.04-2.2-2.103-3.805c-0.087-2.24,1.486-4.352,3.634-4.955c1.889-0.531,3.863,0.805,4.072,2.755
				c0.065,0.604-0.101,0.856-0.71,0.909c-1.492,0.128-2.985,0.223-4.479,0.326c-0.222,0.015-0.445,0.002-0.72,0.002
				c0.096,1.461,0.417,2.723,1.752,3.427C160.037,204.09,161.24,203.637,162.395,202.699z M157.051,199.034
				c1.172,0,2.286,0.016,3.4-0.019c0.154-0.005,0.396-0.238,0.436-0.404c0.131-0.545-0.38-1.448-0.932-1.763
				c-0.614-0.35-1.361-0.28-1.901,0.189C157.468,197.546,157.193,198.214,157.051,199.034z"/>
			<path fill="#FE866A" d="M167.18,195.811c0,0.323,0,0.657,0,0.991c0,0.336,0,0.673,0,1.154c0.375-0.488,0.657-0.875,0.959-1.246
				c0.642-0.789,1.503-1.062,2.199-0.713c0.388,0.194,0.701,0.505,0.588,0.935c-0.097,0.369-0.348,0.731-0.624,1.001
				c-0.108,0.106-0.514,0.025-0.707-0.094c-0.7-0.433-1.146-0.412-1.705,0.196c-0.463,0.502-0.746,1.069-0.72,1.792
				c0.039,1.024,0.009,2.05,0.011,3.075c0.003,1.154,0.159,1.353,1.31,1.483c0.374,0.043,0.462,0.177,0.351,0.546
				c-1.589,0-3.191,0-4.811,0c-0.095-0.301-0.097-0.475,0.296-0.559c0.938-0.201,1.03-0.345,1.034-1.316
				c0.005-1.596,0.006-3.19,0-4.786c-0.004-0.839-0.121-0.965-0.921-1.178c-0.127-0.034-0.223-0.184-0.332-0.279
				c0.109-0.099,0.203-0.252,0.329-0.287C165.328,196.28,166.224,196.057,167.18,195.811z"/>
			<path fill="#F9E2D3" d="M179.006,200.82c-0.08,0.619-0.107,1.251-0.251,1.854c-0.228,0.948-0.751,1.671-1.81,1.797
				c-0.957,0.114-1.7-0.344-2.154-1.112c-1.055-1.789-1.257-3.698-0.352-5.604c0.741-1.562,2.655-1.665,3.659-0.246
				C178.798,198.497,178.971,199.633,179.006,200.82z"/>
			<path fill="#F9E2D3" d="M157.051,199.034c0.144-0.82,0.418-1.488,1.003-1.996c0.54-0.469,1.287-0.54,1.901-0.189
				c0.552,0.315,1.063,1.218,0.932,1.763c-0.039,0.166-0.281,0.399-0.436,0.404C159.337,199.05,158.222,199.034,157.051,199.034z"/>
		</g>
	</g>
</g>
<g id="Ebene_2">
</g>
</svg>
